<mxfile host="app.diagrams.net" modified="2024-05-09T12:10:31.808Z" agent="Mozilla/5.0 (X11; Linux x86_64) AppleWebKit/537.36 (KHTML, like Gecko) Chrome/124.0.0.0 Safari/537.36" etag="X71Usi-3MdUDcty1rn15" version="24.3.1" type="device">
  <diagram name="Page-1" id="U8wlDsqElhmXAns2YSJP">
    <mxGraphModel dx="2738" dy="2261" grid="0" gridSize="10" guides="1" tooltips="1" connect="1" arrows="1" fold="1" page="1" pageScale="1" pageWidth="827" pageHeight="1169" math="0" shadow="0">
      <root>
        <mxCell id="0" />
        <mxCell id="1" parent="0" />
        <mxCell id="uRgsAbQX3v8dfQERps4H-34" value="" style="rounded=1;whiteSpace=wrap;html=1;" parent="1" vertex="1">
          <mxGeometry x="-110" y="-420" width="1070" height="1190" as="geometry" />
        </mxCell>
        <mxCell id="uRgsAbQX3v8dfQERps4H-12" value="" style="rounded=1;whiteSpace=wrap;html=1;" parent="1" vertex="1">
          <mxGeometry x="15" y="-90" width="840" height="790" as="geometry" />
        </mxCell>
        <mxCell id="uRgsAbQX3v8dfQERps4H-16" value="" style="rounded=1;whiteSpace=wrap;html=1;dashed=1;dashPattern=12 12;" parent="1" vertex="1">
          <mxGeometry x="60" y="200" width="750" height="440" as="geometry" />
        </mxCell>
        <mxCell id="uRgsAbQX3v8dfQERps4H-2" value="" style="rounded=1;whiteSpace=wrap;html=1;" parent="1" vertex="1">
          <mxGeometry x="240" y="80" width="369" height="280" as="geometry" />
        </mxCell>
        <mxCell id="uRgsAbQX3v8dfQERps4H-4" value="" style="rounded=1;whiteSpace=wrap;html=1;" parent="1" vertex="1">
          <mxGeometry x="110" y="420" width="230" height="150" as="geometry" />
        </mxCell>
        <mxCell id="uRgsAbQX3v8dfQERps4H-6" value="Master node" style="text;html=1;align=center;verticalAlign=middle;whiteSpace=wrap;rounded=0;" parent="1" vertex="1">
          <mxGeometry x="260" y="90" width="60" height="30" as="geometry" />
        </mxCell>
        <mxCell id="uRgsAbQX3v8dfQERps4H-7" value="Worker node" style="text;html=1;align=center;verticalAlign=middle;whiteSpace=wrap;rounded=0;" parent="1" vertex="1">
          <mxGeometry x="130" y="440" width="60" height="30" as="geometry" />
        </mxCell>
        <mxCell id="uRgsAbQX3v8dfQERps4H-10" value="" style="rounded=1;whiteSpace=wrap;html=1;" parent="1" vertex="1">
          <mxGeometry x="520" y="420" width="230" height="150" as="geometry" />
        </mxCell>
        <mxCell id="uRgsAbQX3v8dfQERps4H-11" value="Worker node" style="text;html=1;align=center;verticalAlign=middle;whiteSpace=wrap;rounded=0;" parent="1" vertex="1">
          <mxGeometry x="540" y="440" width="60" height="30" as="geometry" />
        </mxCell>
        <mxCell id="uRgsAbQX3v8dfQERps4H-13" value="Vagrant" style="text;html=1;align=center;verticalAlign=middle;whiteSpace=wrap;rounded=0;" parent="1" vertex="1">
          <mxGeometry x="80" y="-70" width="60" height="30" as="geometry" />
        </mxCell>
        <mxCell id="uRgsAbQX3v8dfQERps4H-17" value="k8s (weave) network" style="text;html=1;align=center;verticalAlign=middle;whiteSpace=wrap;rounded=0;" parent="1" vertex="1">
          <mxGeometry x="100" y="220" width="60" height="30" as="geometry" />
        </mxCell>
        <mxCell id="uRgsAbQX3v8dfQERps4H-19" value="" style="endArrow=none;html=1;rounded=1;entryX=0.75;entryY=0;entryDx=0;entryDy=0;strokeColor=default;curved=0;" parent="1" target="uRgsAbQX3v8dfQERps4H-16" edge="1">
          <mxGeometry width="50" height="50" relative="1" as="geometry">
            <mxPoint x="240" y="200" as="sourcePoint" />
            <mxPoint x="310" y="190" as="targetPoint" />
          </mxGeometry>
        </mxCell>
        <mxCell id="uRgsAbQX3v8dfQERps4H-20" value="kubeadm" style="rounded=1;whiteSpace=wrap;html=1;" parent="1" vertex="1">
          <mxGeometry x="160" y="480" width="120" height="60" as="geometry" />
        </mxCell>
        <mxCell id="uRgsAbQX3v8dfQERps4H-21" value="kubeadm" style="rounded=1;whiteSpace=wrap;html=1;" parent="1" vertex="1">
          <mxGeometry x="570" y="480" width="120" height="60" as="geometry" />
        </mxCell>
        <mxCell id="uRgsAbQX3v8dfQERps4H-22" value="kubeadm" style="rounded=1;whiteSpace=wrap;html=1;" parent="1" vertex="1">
          <mxGeometry x="362" y="290" width="134" height="60" as="geometry" />
        </mxCell>
        <mxCell id="uRgsAbQX3v8dfQERps4H-23" value="ingress-nginx-controller" style="rounded=1;whiteSpace=wrap;html=1;" parent="1" vertex="1">
          <mxGeometry x="332" y="210" width="178" height="70" as="geometry" />
        </mxCell>
        <mxCell id="rJ6fxUFYqcgPx_FLFofE-2" style="edgeStyle=orthogonalEdgeStyle;rounded=0;orthogonalLoop=1;jettySize=auto;html=1;" edge="1" parent="1" source="uRgsAbQX3v8dfQERps4H-24" target="rJ6fxUFYqcgPx_FLFofE-1">
          <mxGeometry relative="1" as="geometry" />
        </mxCell>
        <mxCell id="uRgsAbQX3v8dfQERps4H-24" value="Control plane Nginx proxy" style="rounded=1;whiteSpace=wrap;html=1;" parent="1" vertex="1">
          <mxGeometry x="353.5" y="100" width="142" height="80" as="geometry" />
        </mxCell>
        <mxCell id="uRgsAbQX3v8dfQERps4H-25" value="192.168.0.xxx" style="text;html=1;align=center;verticalAlign=middle;whiteSpace=wrap;rounded=0;" parent="1" vertex="1">
          <mxGeometry x="510" y="320" width="90" height="30" as="geometry" />
        </mxCell>
        <mxCell id="uRgsAbQX3v8dfQERps4H-26" value="192.168.0.yyy&lt;span style=&quot;color: rgba(0, 0, 0, 0); font-family: monospace; font-size: 0px; text-align: start; text-wrap: nowrap;&quot;&gt;%3CmxGraphModel%3E%3Croot%3E%3CmxCell%20id%3D%220%22%2F%3E%3CmxCell%20id%3D%221%22%20parent%3D%220%22%2F%3E%3CmxCell%20id%3D%222%22%20value%3D%22192.168.0.xxx%22%20style%3D%22text%3Bhtml%3D1%3Balign%3Dcenter%3BverticalAlign%3Dmiddle%3BwhiteSpace%3Dwrap%3Brounded%3D0%3B%22%20vertex%3D%221%22%20parent%3D%221%22%3E%3CmxGeometry%20x%3D%22510%22%20y%3D%22320%22%20width%3D%2290%22%20height%3D%2230%22%20as%3D%22geometry%22%2F%3E%3C%2FmxCell%3E%3C%2Froot%3E%3C%2FmxGraphModel%3E&lt;/span&gt;" style="text;html=1;align=center;verticalAlign=middle;whiteSpace=wrap;rounded=0;" parent="1" vertex="1">
          <mxGeometry x="240" y="540" width="90" height="30" as="geometry" />
        </mxCell>
        <mxCell id="uRgsAbQX3v8dfQERps4H-27" value="192.168.0.zzz" style="text;html=1;align=center;verticalAlign=middle;whiteSpace=wrap;rounded=0;" parent="1" vertex="1">
          <mxGeometry x="650" y="540" width="90" height="30" as="geometry" />
        </mxCell>
        <mxCell id="uRgsAbQX3v8dfQERps4H-28" value="192.168.0.xxx" style="text;html=1;align=center;verticalAlign=middle;whiteSpace=wrap;rounded=0;" parent="1" vertex="1">
          <mxGeometry x="420" y="260" width="90" height="30" as="geometry" />
        </mxCell>
        <mxCell id="uRgsAbQX3v8dfQERps4H-29" value="127.0.0.1:port" style="text;html=1;align=center;verticalAlign=middle;whiteSpace=wrap;rounded=0;" parent="1" vertex="1">
          <mxGeometry x="379.5" y="150" width="90" height="30" as="geometry" />
        </mxCell>
        <mxCell id="uRgsAbQX3v8dfQERps4H-30" value="" style="html=1;verticalLabelPosition=bottom;align=center;labelBackgroundColor=#ffffff;verticalAlign=top;strokeWidth=2;strokeColor=#0080F0;shadow=0;dashed=0;shape=mxgraph.ios7.icons.user;" parent="1" vertex="1">
          <mxGeometry x="395" y="-350" width="60" height="50" as="geometry" />
        </mxCell>
        <mxCell id="uRgsAbQX3v8dfQERps4H-32" value="" style="whiteSpace=wrap;html=1;shape=mxgraph.basic.document" parent="1" vertex="1">
          <mxGeometry x="620" y="-30" width="220" height="140" as="geometry" />
        </mxCell>
        <mxCell id="uRgsAbQX3v8dfQERps4H-33" value="/etc/hosts&lt;br&gt;&lt;div&gt;192.168.0.xxx&amp;nbsp; controlplane&lt;/div&gt;&lt;div&gt;192.168.0.yyy&amp;nbsp; node01&lt;/div&gt;&lt;div&gt;192.168.0.zzz&amp;nbsp; node02&lt;/div&gt;&lt;div&gt;127.0.0.1 adminer.k8s.com&lt;/div&gt;" style="text;html=1;align=center;verticalAlign=middle;whiteSpace=wrap;rounded=0;" parent="1" vertex="1">
          <mxGeometry x="650" y="-20" width="160" height="120" as="geometry" />
        </mxCell>
        <mxCell id="uRgsAbQX3v8dfQERps4H-35" value="Host VM" style="text;html=1;align=center;verticalAlign=middle;whiteSpace=wrap;rounded=0;" parent="1" vertex="1">
          <mxGeometry x="-30" y="-380" width="60" height="30" as="geometry" />
        </mxCell>
        <mxCell id="uRgsAbQX3v8dfQERps4H-36" value="" style="whiteSpace=wrap;html=1;shape=mxgraph.basic.document" parent="1" vertex="1">
          <mxGeometry x="660" y="-230" width="220" height="120" as="geometry" />
        </mxCell>
        <mxCell id="uRgsAbQX3v8dfQERps4H-37" value="/etc/hosts&lt;br&gt;&lt;div&gt;127.0.0.1 adminer.k8s.com&lt;br&gt;&lt;/div&gt;" style="text;html=1;align=center;verticalAlign=middle;whiteSpace=wrap;rounded=0;" parent="1" vertex="1">
          <mxGeometry x="690" y="-230" width="160" height="120" as="geometry" />
        </mxCell>
        <mxCell id="uRgsAbQX3v8dfQERps4H-38" value="port forwarding" style="text;html=1;align=center;verticalAlign=middle;whiteSpace=wrap;rounded=0;" parent="1" vertex="1">
          <mxGeometry x="360" y="-140" width="60" height="30" as="geometry" />
        </mxCell>
        <mxCell id="uRgsAbQX3v8dfQERps4H-41" value="http://adminer.k8s.com:port" style="text;html=1;align=center;verticalAlign=middle;whiteSpace=wrap;rounded=0;" parent="1" vertex="1">
          <mxGeometry x="320" y="-400" width="215" height="30" as="geometry" />
        </mxCell>
        <mxCell id="rJ6fxUFYqcgPx_FLFofE-4" style="edgeStyle=orthogonalEdgeStyle;rounded=0;orthogonalLoop=1;jettySize=auto;html=1;" edge="1" parent="1" source="rJ6fxUFYqcgPx_FLFofE-1" target="uRgsAbQX3v8dfQERps4H-30">
          <mxGeometry relative="1" as="geometry" />
        </mxCell>
        <mxCell id="rJ6fxUFYqcgPx_FLFofE-1" value="Nginx proxy" style="rounded=1;whiteSpace=wrap;html=1;" vertex="1" parent="1">
          <mxGeometry x="354" y="-220" width="142" height="80" as="geometry" />
        </mxCell>
        <mxCell id="rJ6fxUFYqcgPx_FLFofE-5" value="" style="html=1;verticalLabelPosition=bottom;align=center;labelBackgroundColor=#ffffff;verticalAlign=top;strokeWidth=2;strokeColor=#0080F0;shadow=0;dashed=0;shape=mxgraph.ios7.icons.user;" vertex="1" parent="1">
          <mxGeometry x="1531" y="-390" width="60" height="50" as="geometry" />
        </mxCell>
        <mxCell id="rJ6fxUFYqcgPx_FLFofE-35" style="edgeStyle=orthogonalEdgeStyle;rounded=0;orthogonalLoop=1;jettySize=auto;html=1;exitX=0.5;exitY=0;exitDx=0;exitDy=0;" edge="1" parent="1" source="rJ6fxUFYqcgPx_FLFofE-6" target="rJ6fxUFYqcgPx_FLFofE-5">
          <mxGeometry relative="1" as="geometry" />
        </mxCell>
        <mxCell id="rJ6fxUFYqcgPx_FLFofE-6" value="Nginx proxy on host machine" style="rounded=1;whiteSpace=wrap;html=1;" vertex="1" parent="1">
          <mxGeometry x="1501" y="-280" width="120" height="60" as="geometry" />
        </mxCell>
        <mxCell id="rJ6fxUFYqcgPx_FLFofE-8" value="port forwarding from Vagrant VM port to 80" style="shape=note2;boundedLbl=1;whiteSpace=wrap;html=1;size=25;verticalAlign=top;align=center;" vertex="1" parent="1">
          <mxGeometry x="1901" y="-280" width="120" height="60" as="geometry" />
        </mxCell>
        <mxCell id="rJ6fxUFYqcgPx_FLFofE-19" style="edgeStyle=orthogonalEdgeStyle;rounded=0;orthogonalLoop=1;jettySize=auto;html=1;exitX=0.5;exitY=0;exitDx=0;exitDy=0;entryX=0.5;entryY=1;entryDx=0;entryDy=0;" edge="1" parent="1" source="rJ6fxUFYqcgPx_FLFofE-9" target="rJ6fxUFYqcgPx_FLFofE-6">
          <mxGeometry relative="1" as="geometry" />
        </mxCell>
        <mxCell id="rJ6fxUFYqcgPx_FLFofE-9" value="Nginx proxy on control plain node" style="rounded=1;whiteSpace=wrap;html=1;" vertex="1" parent="1">
          <mxGeometry x="1501" y="-160" width="120" height="60" as="geometry" />
        </mxCell>
        <mxCell id="rJ6fxUFYqcgPx_FLFofE-10" value="forward traffic from external ingress IP to 127.0.0.1&amp;nbsp;" style="shape=note2;boundedLbl=1;whiteSpace=wrap;html=1;size=25;verticalAlign=top;align=center;" vertex="1" parent="1">
          <mxGeometry x="1901" y="-170" width="120" height="90" as="geometry" />
        </mxCell>
        <mxCell id="rJ6fxUFYqcgPx_FLFofE-20" style="edgeStyle=orthogonalEdgeStyle;rounded=0;orthogonalLoop=1;jettySize=auto;html=1;exitX=0.5;exitY=0;exitDx=0;exitDy=0;" edge="1" parent="1" source="rJ6fxUFYqcgPx_FLFofE-11" target="rJ6fxUFYqcgPx_FLFofE-9">
          <mxGeometry relative="1" as="geometry" />
        </mxCell>
        <mxCell id="rJ6fxUFYqcgPx_FLFofE-11" value="ingress controller" style="rounded=1;whiteSpace=wrap;html=1;" vertex="1" parent="1">
          <mxGeometry x="1501" y="-20" width="120" height="60" as="geometry" />
        </mxCell>
        <mxCell id="rJ6fxUFYqcgPx_FLFofE-12" value="forward traffic from services ports to external IP" style="shape=note2;boundedLbl=1;whiteSpace=wrap;html=1;size=25;verticalAlign=top;align=center;" vertex="1" parent="1">
          <mxGeometry x="1901" y="-40" width="120" height="90" as="geometry" />
        </mxCell>
        <mxCell id="rJ6fxUFYqcgPx_FLFofE-21" style="edgeStyle=orthogonalEdgeStyle;rounded=0;orthogonalLoop=1;jettySize=auto;html=1;" edge="1" parent="1">
          <mxGeometry relative="1" as="geometry">
            <mxPoint x="1531" y="50" as="targetPoint" />
            <mxPoint x="1491" y="150.00000000000045" as="sourcePoint" />
          </mxGeometry>
        </mxCell>
        <mxCell id="rJ6fxUFYqcgPx_FLFofE-13" value="kanban-app-svc&lt;br&gt;port 8080" style="rounded=1;whiteSpace=wrap;html=1;" vertex="1" parent="1">
          <mxGeometry x="1370" y="120" width="120" height="60" as="geometry" />
        </mxCell>
        <mxCell id="rJ6fxUFYqcgPx_FLFofE-22" style="edgeStyle=orthogonalEdgeStyle;rounded=0;orthogonalLoop=1;jettySize=auto;html=1;exitX=0;exitY=0.5;exitDx=0;exitDy=0;" edge="1" parent="1" source="rJ6fxUFYqcgPx_FLFofE-14">
          <mxGeometry relative="1" as="geometry">
            <mxPoint x="1591" y="50" as="targetPoint" />
          </mxGeometry>
        </mxCell>
        <mxCell id="rJ6fxUFYqcgPx_FLFofE-14" value="kanban-ui-svc&lt;br&gt;port 80" style="rounded=1;whiteSpace=wrap;html=1;" vertex="1" parent="1">
          <mxGeometry x="1631" y="120" width="120" height="60" as="geometry" />
        </mxCell>
        <mxCell id="rJ6fxUFYqcgPx_FLFofE-15" value="forward traffic from services ports to external IP" style="shape=note2;boundedLbl=1;whiteSpace=wrap;html=1;size=25;verticalAlign=top;align=center;" vertex="1" parent="1">
          <mxGeometry x="1901" y="100" width="120" height="90" as="geometry" />
        </mxCell>
        <mxCell id="rJ6fxUFYqcgPx_FLFofE-23" style="edgeStyle=orthogonalEdgeStyle;rounded=0;orthogonalLoop=1;jettySize=auto;html=1;exitX=0.5;exitY=0;exitDx=0;exitDy=0;entryX=0.5;entryY=1;entryDx=0;entryDy=0;" edge="1" parent="1">
          <mxGeometry relative="1" as="geometry">
            <mxPoint x="1431" y="380" as="sourcePoint" />
            <mxPoint x="1431" y="180.00000000000045" as="targetPoint" />
          </mxGeometry>
        </mxCell>
        <mxCell id="rJ6fxUFYqcgPx_FLFofE-16" value="kanban-app-deployment" style="rounded=1;whiteSpace=wrap;html=1;" vertex="1" parent="1">
          <mxGeometry x="1370" y="380" width="120" height="60" as="geometry" />
        </mxCell>
        <mxCell id="rJ6fxUFYqcgPx_FLFofE-24" style="edgeStyle=orthogonalEdgeStyle;rounded=0;orthogonalLoop=1;jettySize=auto;html=1;exitX=0.5;exitY=0;exitDx=0;exitDy=0;" edge="1" parent="1" source="rJ6fxUFYqcgPx_FLFofE-17">
          <mxGeometry relative="1" as="geometry">
            <mxPoint x="1701" y="190" as="targetPoint" />
          </mxGeometry>
        </mxCell>
        <mxCell id="rJ6fxUFYqcgPx_FLFofE-17" value="kanban-ui-deployment" style="rounded=1;whiteSpace=wrap;html=1;" vertex="1" parent="1">
          <mxGeometry x="1641" y="380" width="120" height="60" as="geometry" />
        </mxCell>
        <mxCell id="rJ6fxUFYqcgPx_FLFofE-18" value="postgres-deployment" style="rounded=1;whiteSpace=wrap;html=1;" vertex="1" parent="1">
          <mxGeometry x="1340" y="650" width="120" height="60" as="geometry" />
        </mxCell>
        <mxCell id="rJ6fxUFYqcgPx_FLFofE-31" style="edgeStyle=orthogonalEdgeStyle;rounded=0;orthogonalLoop=1;jettySize=auto;html=1;" edge="1" parent="1" source="rJ6fxUFYqcgPx_FLFofE-27" target="rJ6fxUFYqcgPx_FLFofE-17">
          <mxGeometry relative="1" as="geometry" />
        </mxCell>
        <mxCell id="rJ6fxUFYqcgPx_FLFofE-27" value="external kanban UI nginx" style="rounded=1;whiteSpace=wrap;html=1;" vertex="1" parent="1">
          <mxGeometry x="1641" y="480" width="120" height="60" as="geometry" />
        </mxCell>
        <mxCell id="rJ6fxUFYqcgPx_FLFofE-29" value="" style="endArrow=classic;startArrow=classic;html=1;rounded=0;entryX=0.5;entryY=1;entryDx=0;entryDy=0;exitX=0.75;exitY=1;exitDx=0;exitDy=0;" edge="1" parent="1" target="rJ6fxUFYqcgPx_FLFofE-27">
          <mxGeometry width="50" height="50" relative="1" as="geometry">
            <mxPoint x="1461" y="440" as="sourcePoint" />
            <mxPoint x="1791" y="570" as="targetPoint" />
            <Array as="points">
              <mxPoint x="1461" y="600" />
              <mxPoint x="1701" y="600" />
            </Array>
          </mxGeometry>
        </mxCell>
        <mxCell id="rJ6fxUFYqcgPx_FLFofE-30" value="" style="endArrow=classic;startArrow=classic;html=1;rounded=0;entryX=0.25;entryY=1;entryDx=0;entryDy=0;exitX=0.5;exitY=0;exitDx=0;exitDy=0;" edge="1" parent="1">
          <mxGeometry width="50" height="50" relative="1" as="geometry">
            <mxPoint x="1401" y="650" as="sourcePoint" />
            <mxPoint x="1401" y="440" as="targetPoint" />
          </mxGeometry>
        </mxCell>
        <mxCell id="rJ6fxUFYqcgPx_FLFofE-32" value="frontend and backend apps deployments" style="shape=note2;boundedLbl=1;whiteSpace=wrap;html=1;size=25;verticalAlign=top;align=center;" vertex="1" parent="1">
          <mxGeometry x="1901" y="365" width="120" height="90" as="geometry" />
        </mxCell>
        <mxCell id="rJ6fxUFYqcgPx_FLFofE-33" value="Postgres deployment" style="shape=note2;boundedLbl=1;whiteSpace=wrap;html=1;size=25;verticalAlign=top;align=center;" vertex="1" parent="1">
          <mxGeometry x="1901" y="620" width="120" height="90" as="geometry" />
        </mxCell>
        <mxCell id="rJ6fxUFYqcgPx_FLFofE-37" value="&lt;font style=&quot;font-size: 36px;&quot;&gt;K8s cluster structure&lt;/font&gt;" style="text;html=1;align=center;verticalAlign=middle;whiteSpace=wrap;rounded=0;" vertex="1" parent="1">
          <mxGeometry x="225.5" y="-490" width="399" height="40" as="geometry" />
        </mxCell>
        <mxCell id="rJ6fxUFYqcgPx_FLFofE-38" value="&lt;font style=&quot;font-size: 36px;&quot;&gt;Services structure&lt;/font&gt;" style="text;html=1;align=center;verticalAlign=middle;whiteSpace=wrap;rounded=0;" vertex="1" parent="1">
          <mxGeometry x="1352" y="-490" width="399" height="40" as="geometry" />
        </mxCell>
      </root>
    </mxGraphModel>
  </diagram>
</mxfile>
